<?xml version="1.0" encoding="UTF-8"?>
<svg version="1.1" xmlns="http://www.w3.org/2000/svg" width="130" height="117">
<path d="M0 0 C42.9 0 85.8 0 130 0 C130 38.61 130 77.22 130 117 C87.1 117 44.2 117 0 117 C0 78.39 0 39.78 0 0 Z " fill="#FBFAF8" transform="translate(0,0)"/>
<path d="M0 0 C42.9 0 85.8 0 130 0 C130 38.61 130 77.22 130 117 C87.1 117 44.2 117 0 117 C0 78.39 0 39.78 0 0 Z M14.25 26.25 C5.3220783 38.30904116 2.16041164 52.17998289 4 67 C6.16819927 76.64011364 10.6360206 85.46657139 17 93 C17.58265625 93.69351563 18.1653125 94.38703125 18.765625 95.1015625 C28.19519723 105.36315581 42.4145067 113.1706672 56.47265625 114.17700195 C78.03327707 114.68715616 94.65977021 111.1983169 111 96 C123.24303811 83.27684274 126.43609493 69.88857045 126.2109375 52.8984375 C126.04606168 47.49824565 125.29081549 42.9200469 123 38 C122.39671875 36.67162109 122.39671875 36.67162109 121.78125 35.31640625 C114.68325992 21.10070946 103.00916764 11.22784622 88.25 5.5625 C86.50923337 5.01159264 84.7593268 4.48840207 83 4 C82.26265625 3.77699219 81.5253125 3.55398437 80.765625 3.32421875 C55.25126751 -3.14235117 30.84189555 6.37619105 14.25 26.25 Z " fill="#FCFBF9" transform="translate(0,0)"/>
<path d="M0 0 C0.99 0.33 1.98 0.66 3 1 C2.34 1.33 1.68 1.66 1 2 C1 2.66 1 3.32 1 4 C2.32 4 3.64 4 5 4 C5.33 3.34 5.66 2.68 6 2 C6.99 3.485 6.99 3.485 8 5 C8.33 4.01 8.66 3.02 9 2 C12.26954202 2.56371414 13.82575883 3.49962266 16 6 C15.67 6.66 15.34 7.32 15 8 C14.01 7.34 13.02 6.68 12 6 C12.99 6.99 12.99 6.99 14 8 C14.88671875 10.27734375 14.88671875 10.27734375 15.6875 12.9375 C15.95949219 13.81277344 16.23148437 14.68804687 16.51171875 15.58984375 C17 18 17 18 16 21 C13 17.25 13 17.25 13 15 C11.68 14.67 10.36 14.34 9 14 C9 14.99 9 15.98 9 17 C10.485 17.495 10.485 17.495 12 18 C12.625 20 12.625 20 13 22 C13.33 22.33 13.66 22.66 14 23 C15.66666667 24.66666667 17.33333333 26.33333333 19 28 C15.25 29.125 15.25 29.125 13 28 C13 28.66 13 29.32 13 30 C13.5775 30.12375 14.155 30.2475 14.75 30.375 C20.16056264 31.87793407 22.16990071 34.04732625 25 39 C25 39.99 25 40.98 25 42 C19.85714286 46 19.85714286 46 16 46 C16 45.34 16 44.68 16 44 C16.99 43.34 17.98 42.68 19 42 C18.49433221 37.57540683 16.99875682 35.25579312 14 32 C13.319375 31.505 12.63875 31.01 11.9375 30.5 C10 29 10 29 8.5 26.375 C7.23119477 23.83418336 7.23119477 23.83418336 4.8125 23.1875 C4.214375 23.125625 3.61625 23.06375 3 23 C-2.36501824 28.6088827 -2.30196771 37.67066097 -3 45 C-6.3 45 -9.6 45 -13 45 C-13 44.34 -13 43.68 -13 43 C-10.69 42.34 -8.38 41.68 -6 41 C-6.02320312 39.86820313 -6.04640625 38.73640625 -6.0703125 37.5703125 C-6.08906901 36.08854825 -6.10726934 34.60677688 -6.125 33.125 C-6.14175781 32.37863281 -6.15851563 31.63226563 -6.17578125 30.86328125 C-6.1933959 28.90805539 -6.10320189 26.95257979 -6 25 C-5.34 24.34 -4.68 23.68 -4 23 C-3.01 23 -2.02 23 -1 23 C-0.67 21.35 -0.34 19.7 0 18 C0.66 18 1.32 18 2 18 C2.66 16.68 3.32 15.36 4 14 C3.01 13.01 2.02 12.02 1 11 C1 12.32 1 13.64 1 15 C-2.16610547 16.01767676 -3.83031702 15.79242075 -7 15 C-12.09249622 14.54584356 -12.09249622 14.54584356 -16.87890625 15.953125 C-19.56222167 17.27748694 -21.97257731 17.55268309 -24.9375 17.9375 C-30.80207059 18.76489427 -36.47866075 19.97983865 -42.22265625 21.4140625 C-45 22 -45 22 -49 22 C-49 22.66 -49 23.32 -49 24 C-50.27875 23.95875 -51.5575 23.9175 -52.875 23.875 C-55.01871492 23.75787127 -55.01871492 23.75787127 -57 24 C-57.66 24.66 -58.32 25.32 -59 26 C-58.67 26.66 -58.34 27.32 -58 28 C-58.66 28.33 -59.32 28.66 -60 29 C-58.52949652 33.41151045 -54.95377777 35.85139916 -51 38 C-50.01 38 -49.02 38 -48 38 C-46.64560332 40.70879335 -46.93498549 43.00933268 -47 46 C-48.485 45.505 -48.485 45.505 -50 45 C-50 43.68 -50 42.36 -50 41 C-52.31 39.68 -54.62 38.36 -57 37 C-57 36.34 -57 35.68 -57 35 C-59.31 34.67 -61.62 34.34 -64 34 C-65.10251165 37.30753495 -66.05066101 40.64566891 -67 44 C-69.475 44.495 -69.475 44.495 -72 45 C-71.51660156 44.59652344 -71.03320312 44.19304687 -70.53515625 43.77734375 C-68.64910451 41.59374695 -68.58624467 40.40784152 -68.4375 37.5625 C-68.24959585 34.19730742 -67.66958697 31.94356899 -66 29 C-67.98 29.33 -69.96 29.66 -72 30 C-69.8614515 27.8614515 -68.86724686 27.57344937 -66 27 C-65.80602524 25.02145742 -65.61998679 23.0421352 -65.4375 21.0625 C-65.33308594 19.96035156 -65.22867188 18.85820313 -65.12109375 17.72265625 C-65.08113281 16.82417969 -65.04117188 15.92570312 -65 15 C-65.33 14.67 -65.66 14.34 -66 14 C-66.125 11 -66.125 11 -66 8 C-65 7 -65 7 -62.5625 6.8125 C-60 7 -60 7 -58 9 C-58.061875 9.763125 -58.12375 10.52625 -58.1875 11.3125 C-58.23875599 14.23284157 -58.23875599 14.23284157 -55.8125 16.75 C-52.33410493 19.53271605 -49.93695888 20.19477905 -45.51147461 19.74975586 C-42.64892019 19.16288801 -39.79021009 18.57087785 -36.9375 17.9375 C-35.90633057 17.70998047 -34.87516113 17.48246094 -33.81274414 17.24804688 C-23.33788305 14.80807292 -15.1139366 11.14799176 -7 4 C-5.02288349 2.95548562 -3.02749004 1.94301862 -1 1 C-0.67 0.67 -0.34 0.34 0 0 Z " fill="#65625E" transform="translate(89,40)"/>
<path d="M0 0 C10.69442043 8.03701899 18.36617353 18.4827748 22.03515625 31.46875 C23.41083684 41.99043889 23.93582573 54.42564843 19.390625 64.1875 C18.9884375 65.07308594 18.58625 65.95867187 18.171875 66.87109375 C10.11053425 83.01616787 -3.2490283 92.34488173 -19.8671875 98.3125 C-34.82008266 103.08379418 -52.73888499 101.37416149 -66.76953125 94.6796875 C-80.66936916 87.12351772 -90.2400493 76.52977595 -96.609375 62.1875 C-96.93164062 61.50300781 -97.25390625 60.81851563 -97.5859375 60.11328125 C-101.46358171 50.60036904 -100.99059473 36.80284361 -97.609375 27.1875 C-89.64486756 8.97321452 -76.20214501 -2.44126064 -58.06640625 -9.8515625 C-38.81178753 -16.23991662 -16.24492346 -11.28389893 0 0 Z M-86.359375 12.0625 C-94.75799645 23.72725201 -99.10408894 35.72199065 -97.609375 50.1875 C-94.35598751 66.40196344 -86.48244496 78.72622846 -73.12109375 88.58984375 C-58.27543451 98.03288361 -41.53256675 100.68936356 -24.37207031 97.10913086 C-9.42196971 93.51305499 3.6488848 85.6933661 12.265625 72.75 C19.71744202 60.20142134 22.4349844 46.67198955 19.859375 32.203125 C19.16824418 29.78416712 18.36140789 27.50729289 17.390625 25.1875 C17.12378906 24.5171875 16.85695313 23.846875 16.58203125 23.15625 C9.55796705 7.4223462 -4.14667685 -1.72522189 -19.609375 -7.8125 C-44.15397464 -16.26967445 -69.36407061 -5.70531823 -86.359375 12.0625 Z " fill="#45423E" transform="translate(103.609375,13.8125)"/>
<path d="M0 0 C4.46244088 0.24121302 6.65081164 2.22262428 10 5 C11.3921875 5.6496875 11.3921875 5.6496875 12.8125 6.3125 C21.16037833 10.731965 25.1107871 15.79089792 28.1484375 24.76953125 C29.33433993 29.26834459 29.73325487 32.38049429 29 37 C26.5 39.5625 26.5 39.5625 24 41 C22.68 39.68 21.36 38.36 20 37 C19.34 37.66 18.68 38.32 18 39 C15.875 34.375 15.875 34.375 17 31 C15.68 30.67 14.36 30.34 13 30 C13.33 28.68 13.66 27.36 14 26 C14.33 26.66 14.66 27.32 15 28 C15.99 28 16.98 28 18 28 C19.6875 30 19.6875 30 21 32 C20.30053366 26.12448273 18.26020614 21.89030921 15 17 C16.32 17.66 17.64 18.32 19 19 C18.34 18.01 17.68 17.02 17 16 C16.01 16 15.02 16 14 16 C13.67 16.66 13.34 17.32 13 18 C12.34 17.67 11.68 17.34 11 17 C10.67 17 10.34 17 10 17 C8.68 17 7.36 17 6 17 C6.33 16.01 6.66 15.02 7 14 C6.443125 14.309375 5.88625 14.61875 5.3125 14.9375 C2.87459567 16.05761821 0.63775814 16.56037364 -2 17 C-1.70703125 14.94921875 -1.4140625 12.8984375 -1.12109375 10.84765625 C-1.08113281 10.23792969 -1.04117188 9.62820312 -1 9 C-1.33 8.67 -1.66 8.34 -2 8 C-2.1875 5.0625 -2.1875 5.0625 -2 2 C-1.34 1.34 -0.68 0.68 0 0 Z " fill="#ECEAE8" transform="translate(84,27)"/>
<path d="M0 0 C1.66666667 0 3.33333333 0 5 0 C5.33 0.66 5.66 1.32 6 2 C6.99 2.33 7.98 2.66 9 3 C9.625 5 9.625 5 10 7 C10.33 7.33 10.66 7.66 11 8 C12.66666667 9.66666667 14.33333333 11.33333333 16 13 C12.25 14.125 12.25 14.125 10 13 C10 13.66 10 14.32 10 15 C10.5775 15.12375 11.155 15.2475 11.75 15.375 C17.16056264 16.87793407 19.16990071 19.04732625 22 24 C22 24.99 22 25.98 22 27 C16.85714286 31 16.85714286 31 13 31 C13 30.34 13 29.68 13 29 C13.99 28.34 14.98 27.68 16 27 C15.49433221 22.57540683 13.99875682 20.25579312 11 17 C10.319375 16.505 9.63875 16.01 8.9375 15.5 C7 14 7 14 5.5 11.375 C4.23119477 8.83418336 4.23119477 8.83418336 1.8125 8.1875 C1.214375 8.125625 0.61625 8.06375 0 8 C-5.36501824 13.6088827 -5.30196771 22.67066097 -6 30 C-9.3 30 -12.6 30 -16 30 C-16 29.34 -16 28.68 -16 28 C-13.69 27.34 -11.38 26.68 -9 26 C-9.02320312 24.86820313 -9.04640625 23.73640625 -9.0703125 22.5703125 C-9.08906901 21.08854825 -9.10726934 19.60677688 -9.125 18.125 C-9.14175781 17.37863281 -9.15851563 16.63226563 -9.17578125 15.86328125 C-9.1933959 13.90805539 -9.10320189 11.95257979 -9 10 C-8.34 9.34 -7.68 8.68 -7 8 C-6.01 8 -5.02 8 -4 8 C-3.67 6.35 -3.34 4.7 -3 3 C-2.34 3 -1.68 3 -1 3 C-0.67 2.01 -0.34 1.02 0 0 Z " fill="#3D3934" transform="translate(92,55)"/>
<path d="M0 0 C-0.99 0.495 -0.99 0.495 -2 1 C-2 1.66 -2 2.32 -2 3 C-0.68 3 0.64 3 2 3 C2.33 2.34 2.66 1.68 3 1 C3.99 2.485 3.99 2.485 5 4 C5.33 3.01 5.66 2.02 6 1 C9.26954202 1.56371414 10.82575883 2.49962266 13 5 C12.67 5.66 12.34 6.32 12 7 C11.01 6.34 10.02 5.68 9 5 C9.66 5.66 10.32 6.32 11 7 C11.88671875 9.27734375 11.88671875 9.27734375 12.6875 11.9375 C12.95949219 12.81277344 13.23148438 13.68804687 13.51171875 14.58984375 C14 17 14 17 13 20 C10 16.25 10 16.25 10 14 C7.39417629 13.06934867 6.35801776 12.85082593 3.75 13.9375 C3.1725 14.288125 2.595 14.63875 2 15 C0.15172566 11.3874638 -1.55049545 7.7910119 -3 4 C-4.98 4.99 -6.96 5.98 -9 7 C-7.02 7 -5.04 7 -3 7 C-6.31371 9.20914 -7.3446021 9.22481553 -11.1875 9.125 C-12.08855469 9.10695313 -12.98960938 9.08890625 -13.91796875 9.0703125 C-14.60503906 9.04710937 -15.29210937 9.02390625 -16 9 C-5.95620438 -1.98540146 -5.95620438 -1.98540146 0 0 Z " fill="#342E29" transform="translate(92,41)"/>
<path d="M0 0 C3 2 3 2 3.8125 3.8125 C4.06529528 6.76177829 3.45472432 8.4369143 2 11 C-1.01764151 12.40823271 -2.89024418 11.77743896 -6 11 C-11.46474821 10.81784173 -16.59140633 11.22734376 -22 12 C-22 11.34 -22 10.68 -22 10 C-15.91643021 6.90787824 -10.81987029 5.43300764 -4 5 C-5.32 4.67 -6.64 4.34 -8 4 C-5.36 2.68 -2.72 1.36 0 0 Z " fill="#302B25" transform="translate(88,44)"/>
<path d="M0 0 C0.78375 0.04125 1.5675 0.0825 2.375 0.125 C2.06628878 1.91732337 1.75290936 3.70884321 1.4375 5.5 C1.26347656 6.49773437 1.08945313 7.49546875 0.91015625 8.5234375 C0.375 11.125 0.375 11.125 -0.625 13.125 C-0.84967831 14.66168865 -1.03296805 16.20468054 -1.1875 17.75 C-1.331875 19.19375 -1.47625 20.6375 -1.625 22.125 C-4.925 22.125 -8.225 22.125 -11.625 22.125 C-11.625 21.465 -11.625 20.805 -11.625 20.125 C-9.315 19.465 -7.005 18.805 -4.625 18.125 C-4.64820312 16.99320313 -4.67140625 15.86140625 -4.6953125 14.6953125 C-4.71406901 13.21354825 -4.73226934 11.73177688 -4.75 10.25 C-4.76675781 9.50363281 -4.78351563 8.75726563 -4.80078125 7.98828125 C-4.8183959 6.03305539 -4.72820189 4.07757979 -4.625 2.125 C-2.625 0.125 -2.625 0.125 0 0 Z " fill="#35312C" transform="translate(87.625,62.875)"/>
<path d="M0 0 C2.5625 0.1875 2.5625 0.1875 4.5625 2.1875 C4.500625 2.950625 4.43875 3.71375 4.375 4.5 C4.64656848 8.39248151 6.75062126 9.6499509 9.5625 12.1875 C9.8925 12.8475 10.2225 13.5075 10.5625 14.1875 C3.9375 15.4375 3.9375 15.4375 0.5625 13.1875 C0.5625 12.1975 0.5625 11.2075 0.5625 10.1875 C-0.0975 10.1875 -0.7575 10.1875 -1.4375 10.1875 C-3.73154844 6.74642734 -3.70043056 5.21910191 -3.4375 1.1875 C-2.4375 0.1875 -2.4375 0.1875 0 0 Z " fill="#B2AFAB" transform="translate(26.4375,46.8125)"/>
<path d="M0 0 C1.75 0.9375 1.75 0.9375 2.75 3.9375 C4.27138974 5.38071366 4.27138974 5.38071366 6.125 6.625 C6.73085938 7.06199219 7.33671875 7.49898438 7.9609375 7.94921875 C9.84701672 9.179266 9.84701672 9.179266 12.75 8.9375 C14.10439668 11.64629335 13.81501451 13.94683268 13.75 16.9375 C12.76 16.6075 11.77 16.2775 10.75 15.9375 C10.75 14.6175 10.75 13.2975 10.75 11.9375 C8.44 10.6175 6.13 9.2975 3.75 7.9375 C3.75 7.2775 3.75 6.6175 3.75 5.9375 C1.44 5.6075 -0.87 5.2775 -3.25 4.9375 C-4.35251165 8.24503495 -5.30066101 11.58316891 -6.25 14.9375 C-7.9 15.2675 -9.55 15.5975 -11.25 15.9375 C-10.76273438 15.53402344 -10.27546875 15.13054687 -9.7734375 14.71484375 C-7.87740026 12.50280031 -7.92339216 11.36965482 -7.875 8.5 C-7.58647876 4.89054046 -7.44876082 4.16312039 -4.9375 1.3125 C-2.25 -0.0625 -2.25 -0.0625 0 0 Z " fill="#443F3A" transform="translate(28.25,69.0625)"/>
<path d="M0 0 C-0.99 0.495 -0.99 0.495 -2 1 C-2 1.66 -2 2.32 -2 3 C-0.68 3 0.64 3 2 3 C2.33 2.34 2.66 1.68 3 1 C3.99 2.485 3.99 2.485 5 4 C5.33 3.01 5.66 2.02 6 1 C9.26954202 1.56371414 10.82575883 2.49962266 13 5 C12.67 5.66 12.34 6.32 12 7 C11.01 6.34 10.02 5.68 9 5 C8.34 5.66 7.68 6.32 7 7 C6.67 6.67 6.34 6.34 6 6 C2.36805359 5.80850919 2.36805359 5.80850919 -1 7 C-1.99 6.01 -2.98 5.02 -4 4 C-5.32 4.99 -6.64 5.98 -8 7 C-6.35 7 -4.7 7 -3 7 C-6.31371 9.20914 -7.3446021 9.22481553 -11.1875 9.125 C-12.08855469 9.10695313 -12.98960938 9.08890625 -13.91796875 9.0703125 C-14.60503906 9.04710937 -15.29210937 9.02390625 -16 9 C-5.95620438 -1.98540146 -5.95620438 -1.98540146 0 0 Z " fill="#84807C" transform="translate(92,41)"/>
<path d="M0 0 C2.8904796 2.69326138 4.8254493 5.21502708 6.6875 8.6875 C12.15515585 17.99210733 19.55953965 23.9742852 29 29 C26.51899653 29.92549792 25.42415503 30.18653089 22.95703125 29.1015625 C12.86082625 22.15007709 5.239089 14.2193996 0 3 C0 2.01 0 1.02 0 0 Z " fill="#44413D" transform="translate(8,76)"/>
<path d="M0 0 C2 1 2 1 3.125 3.75 C3.91973395 6.70186896 4.17810598 8.97219837 4 12 C5.32 12.66 6.64 13.32 8 14 C7.34 14.66 6.68 15.32 6 16 C-2.81548975 10.03416856 -2.81548975 10.03416856 -4 5 C-3.34 4.67 -2.68 4.34 -2 4 C-2.66 3.34 -3.32 2.68 -4 2 C-2.125 0.9375 -2.125 0.9375 0 0 Z " fill="#ABA8A5" transform="translate(32,63)"/>
<path d="M0 0 C0.99 0.33 1.98 0.66 3 1 C3.33 2.65 3.66 4.3 4 6 C1 8 1 8 -1 8 C-1.33 9.32 -1.66 10.64 -2 12 C-2.99 12 -3.98 12 -5 12 C-5.268125 11.2575 -5.53625 10.515 -5.8125 9.75 C-7.03081942 6.63433994 -7.03081942 6.63433994 -10 3 C-6.7 3.33 -3.4 3.66 0 4 C0 2.68 0 1.36 0 0 Z " fill="#D5D1CE" transform="translate(90,51)"/>
<path d="M0 0 C2.0625 0.4375 2.0625 0.4375 4 1 C3.67 1.66 3.34 2.32 3 3 C4.32 3 5.64 3 7 3 C7.33 4.32 7.66 5.64 8 7 C6.68 7.99 5.36 8.98 4 10 C0.125 8.125 0.125 8.125 -1 7 C-1.125 4 -1.125 4 -1 1 C-0.67 0.67 -0.34 0.34 0 0 Z " fill="#39342F" transform="translate(83,28)"/>
<path d="M0 0 C-1 3 -1 3 -3.66015625 4.5703125 C-15.54271357 10 -15.54271357 10 -22 10 C-24.21484375 9 -24.21484375 9 -26 8 C-24.9378125 7.75765625 -23.875625 7.5153125 -22.78125 7.265625 C-16.03656144 5.68107751 -6.26453524 0 0 0 Z " fill="#4C4844" transform="translate(99,103)"/>
<path d="M0 0 C0 0.33 0 0.66 0 1 C-1.134375 1.18175781 -2.26875 1.36351562 -3.4375 1.55078125 C-4.95840377 1.80426521 -6.47923322 2.05819541 -8 2.3125 C-8.74378906 2.43044922 -9.48757812 2.54839844 -10.25390625 2.66992188 C-15.47303276 3.5549042 -20.0930156 5.00932565 -25 7 C-25.66 6.34 -26.32 5.68 -27 5 C-17.67892761 1.06528502 -10.19390657 -1.74617844 0 0 Z " fill="#514E4A" transform="translate(63,3)"/>
<path d="M0 0 C2.5625 0.1875 2.5625 0.1875 4.5625 2.1875 C4.1875 4.3125 4.1875 4.3125 3.5625 6.1875 C2.2425 5.8575 0.9225 5.5275 -0.4375 5.1875 C-0.1075 5.5175 0.2225 5.8475 0.5625 6.1875 C0.2325 7.1775 -0.0975 8.1675 -0.4375 9.1875 C-1.4275 8.5275 -2.4175 7.8675 -3.4375 7.1875 C-3.6875 4.125 -3.6875 4.125 -3.4375 1.1875 C-2.4375 0.1875 -2.4375 0.1875 0 0 Z " fill="#403C37" transform="translate(26.4375,46.8125)"/>
<path d="M0 0 C5.08383066 0.55259029 9.69986866 1.72519766 14.5703125 3.28125 C17.03073508 4.00909205 19.47824015 4.53333981 22 5 C18.82862045 7.11425303 17.873888 7.24980828 14.25 6.625 C9.32148796 5.25596888 4.66461823 3.07571682 0 1 C0 0.67 0 0.34 0 0 Z " fill="#4F4B48" transform="translate(34,106)"/>
<path d="M0 0 C0.33 0.66 0.66 1.32 1 2 C1.99 2 2.98 2 4 2 C5.32 4.31 6.64 6.62 8 9 C6.68 10.32 5.36 11.64 4 13 C1.875 8.375 1.875 8.375 3 5 C1.68 4.67 0.36 4.34 -1 4 C-0.67 2.68 -0.34 1.36 0 0 Z " fill="#D3CFCA" transform="translate(98,53)"/>
<path d="M0 0 C0.66 0.33 1.32 0.66 2 1 C-1.86962619 5.91853586 -5.70158238 9.63754267 -11 13 C-11.66 13 -12.32 13 -13 13 C-11.75078531 9.25235594 -10.16787484 8.32110909 -7.0625 5.9375 C-3.39948212 3.11846923 -3.39948212 3.11846923 0 0 Z " fill="#43403C" transform="translate(112,91)"/>
<path d="M0 0 C1.64453125 1.5234375 1.64453125 1.5234375 3 3 C-6.41002278 5.29612756 -6.41002278 5.29612756 -11 5 C-11 4.34 -11 3.68 -11 3 C-4.35863874 -0.70680628 -4.35863874 -0.70680628 0 0 Z " fill="#48433F" transform="translate(77,51)"/>
<path d="M0 0 C1.98 0.66 3.96 1.32 6 2 C5.01 2.66 4.02 3.32 3 4 C1.66209359 4.99387334 0.32781878 5.9926892 -1 7 C-1.66 6.67 -2.32 6.34 -3 6 C-2.67 5.34 -2.34 4.68 -2 4 C-3.98 4.33 -5.96 4.66 -8 5 C-5.77077045 2.77077045 -3.90864722 2.11871047 -1 1 C-0.67 0.67 -0.34 0.34 0 0 Z " fill="#615D59" transform="translate(25,65)"/>
<path d="M0 0 C0.66 0 1.32 0 2 0 C1.71517632 1.41805831 1.42181856 2.83440379 1.125 4.25 C0.96257813 5.03890625 0.80015625 5.8278125 0.6328125 6.640625 C0.00849925 8.96831144 -0.84838542 10.89031952 -2 13 C-2.66 13 -3.32 13 -4 13 C-3.50269348 8.02693484 -2.44697666 4.36200187 0 0 Z " fill="#5B5853" transform="translate(9,35)"/>
<path d="M0 0 C0.66 0.33 1.32 0.66 2 1 C2 3.97 2 6.94 2 10 C-0.64 10 -3.28 10 -6 10 C-5.34 9.34 -4.68 8.68 -4 8 C-3.01 8 -2.02 8 -1 8 C-0.67 5.36 -0.34 2.72 0 0 Z " fill="#B7B3AF" transform="translate(23,76)"/>
<path d="M0 0 C2 2 2 2 2.125 4.625 C2.08375 5.40875 2.0425 6.1925 2 7 C0.125 8.0625 0.125 8.0625 -2 9 C-2.66 8.67 -3.32 8.34 -4 8 C-3.67 6.35 -3.34 4.7 -3 3 C-2.34 3 -1.68 3 -1 3 C-0.67 2.01 -0.34 1.02 0 0 Z " fill="#68635E" transform="translate(92,55)"/>
<path d="M0 0 C2.64 0.66 5.28 1.32 8 2 C7.67 2.99 7.34 3.98 7 5 C7.38932856 7.14255793 7.38932856 7.14255793 8 9 C7.01 9 6.02 9 5 9 C4.731875 8.2575 4.46375 7.515 4.1875 6.75 C3.05770579 4.13363446 1.79106798 2.19812889 0 0 Z " fill="#B8B4B1" transform="translate(80,54)"/>
<path d="M0 0 C0.33 0.99 0.66 1.98 1 3 C-1.475 4.485 -1.475 4.485 -4 6 C-4.99 4.02 -5.98 2.04 -7 0 C-3.98968256 -0.93423645 -3.13349732 -1.04449911 0 0 Z " fill="#86817C" transform="translate(98,50)"/>
<path d="M0 0 C0.99 0.66 1.98 1.32 3 2 C2.67 3.32 2.34 4.64 2 6 C-1.3 5.67 -4.6 5.34 -8 5 C-5.21040099 2.90780074 -3.06775511 1.42431487 0 0 Z " fill="#514C46" transform="translate(88,44)"/>
<path d="M0 0 C4.43399343 0.50674211 6.66649455 2.10511369 10 5 C10.99 5.66 11.98 6.32 13 7 C11.02 7.33 9.04 7.66 7 8 C6.67 6.68 6.34 5.36 6 4 C4.68 4 3.36 4 2 4 C2 3.34 2 2.68 2 2 C1.34 1.34 0.68 0.68 0 0 Z " fill="#C7C4C1" transform="translate(84,27)"/>
<path d="M0 0 C-2.48441164 2.48441164 -4.53793834 2.55681238 -7.9296875 3.046875 C-10.40923732 2.99073425 -11.8779436 2.23707324 -14 1 C-12.41913952 0.63495397 -10.83516093 0.28339494 -9.25 -0.0625 C-8.36828125 -0.25972656 -7.4865625 -0.45695312 -6.578125 -0.66015625 C-4.01320972 -0.99825872 -2.42908361 -0.81158635 0 0 Z " fill="#5F5C57" transform="translate(87,110)"/>
<path d="M0 0 C1.32 0 2.64 0 4 0 C4.33 0.66 4.66 1.32 5 2 C6.65 2 8.3 2 10 2 C6.68629 4.20914 5.6553979 4.22481553 1.8125 4.125 C0.91144531 4.10695313 0.01039062 4.08890625 -0.91796875 4.0703125 C-1.60503906 4.04710937 -2.29210937 4.02390625 -3 4 C-1.75 2 -1.75 2 0 0 Z " fill="#AEA9A3" transform="translate(79,46)"/>
<path d="M0 0 C1 3 1 3 0.00390625 5.26171875 C-0.47175781 6.06222656 -0.94742187 6.86273438 -1.4375 7.6875 C-2.14712891 8.89986328 -2.14712891 8.89986328 -2.87109375 10.13671875 C-3.24363281 10.75160156 -3.61617187 11.36648437 -4 12 C-4.66 11.67 -5.32 11.34 -6 11 C-4.74194623 6.49197399 -3.09592835 3.5087188 0 0 Z " fill="#4C4845" transform="translate(16,24)"/>
<path d="M0 0 C0.33 0 0.66 0 1 0 C1.99 4.29 2.98 8.58 4 13 C1 12 1 12 -0.25 9.875 C-1.18252152 6.30033417 -0.70486964 3.59483517 0 0 Z " fill="#534F4B" transform="translate(6,64)"/>
<path d="M0 0 C2.475 0.495 2.475 0.495 5 1 C5.33 2.32 5.66 3.64 6 5 C4.68 5.33 3.36 5.66 2 6 C0 3 0 3 0 0 Z " fill="#F5F4F1" transform="translate(28,56)"/>
<path d="M0 0 C1.91903365 2.8221083 1.99110212 4.12901932 1.75 7.625 C1 11 1 11 -1 13 C-2.51403812 8.15507803 -1.36602172 4.7408989 0 0 Z " fill="#605D59" transform="translate(123,65)"/>
<path d="M0 0 C0.66 0.33 1.32 0.66 2 1 C2.59355614 3.64860427 2.74209269 6.29197322 3 9 C1.62437146 7.71034824 0.29233607 6.37310707 -1 5 C-1 4.34 -1 3.68 -1 3 C-1.99 2.67 -2.98 2.34 -4 2 C-2.125 0.9375 -2.125 0.9375 0 0 Z " fill="#7C7774" transform="translate(103,52)"/>
<path d="M0 0 C0.66 0 1.32 0 2 0 C4.03684712 4.07369424 4.0257259 6.58937864 3 11 C2.67 11 2.34 11 2 11 C0.57741188 7.17679443 -0.24042276 4.08718695 0 0 Z " fill="#565250" transform="translate(121,38)"/>
<path d="M0 0 C-1.98 0.99 -1.98 0.99 -4 2 C-4 2.66 -4 3.32 -4 4 C-5.65 4.66 -7.3 5.32 -9 6 C-9.66 5.34 -10.32 4.68 -11 4 C-9.73760288 3.13341385 -8.46472499 2.28207941 -7.1875 1.4375 C-6.47980469 0.96183594 -5.77210937 0.48617187 -5.04296875 -0.00390625 C-3 -1 -3 -1 0 0 Z " fill="#7B7671" transform="translate(92,41)"/>
<path d="M0 0 C0.33 1.65 0.66 3.3 1 5 C-0.32 5.33 -1.64 5.66 -3 6 C-3.33 4.35 -3.66 2.7 -4 1 C-2 0 -2 0 0 0 Z " fill="#EEECEB" transform="translate(34,68)"/>
<path d="M0 0 C0.66 0.33 1.32 0.66 2 1 C2 2.32 2 3.64 2 5 C0.35 5.66 -1.3 6.32 -3 7 C-3.33 6.34 -3.66 5.68 -4 5 C-3.34 4.67 -2.68 4.34 -2 4 C-2.66 3.34 -3.32 2.68 -4 2 C-2.125 0.9375 -2.125 0.9375 0 0 Z " fill="#CDCAC7" transform="translate(32,63)"/>
<path d="M0 0 C-0.99 0.495 -0.99 0.495 -2 1 C-2 1.66 -2 2.32 -2 3 C-8.625 3.25 -8.625 3.25 -12 1 C-7.9472484 0.01751476 -4.16138263 -0.08159574 0 0 Z " fill="#524E4A" transform="translate(42,61)"/>
<path d="M0 0 C1.32 1.32 2.64 2.64 4 4 C3.01 4.99 2.02 5.98 1 7 C0.01 6.67 -0.98 6.34 -2 6 C-1.34 4.02 -0.68 2.04 0 0 Z " fill="#BCB8B4" transform="translate(84,37)"/>
<path d="M0 0 C1.65 1.65 3.3 3.3 5 5 C3.1875 5.625 3.1875 5.625 1 6 C0.01 5.34 -0.98 4.68 -2 4 C-1.34 2.68 -0.68 1.36 0 0 Z " fill="#524F4A" transform="translate(103,63)"/>
<path d="M0 0 C3.3 0.33 6.6 0.66 10 1 C6.1496895 3.56687367 4.41430237 2.83288724 0 2 C0 1.34 0 0.68 0 0 Z " fill="#575450" transform="translate(46,110)"/>
<path d="M0 0 C0.99 0 1.98 0 3 0 C3.33 1.32 3.66 2.64 4 4 C3.01 4.495 3.01 4.495 2 5 C1.01 4.67 0.02 4.34 -1 4 C-0.67 2.68 -0.34 1.36 0 0 Z " fill="#726D68" transform="translate(87,31)"/>
</svg>
